<svg width="26" height="16" viewBox="0 0 26 16" fill="none" xmlns="http://www.w3.org/2000/svg">
<g id="g4701">
<path id="_x32_1461584" d="M22.2 16C23.8569 16 25.2 14.6569 25.2 13V3C25.2 1.34315 23.8569 0 22.2 0H3C1.34314 0 0 1.34315 0 3V13C0 14.6569 1.34315 16 3 16H22.2Z" fill="#006C35"/>
<g id="g4699">
<g id="g4695">
<g id="g4623">
<path id="path4621" d="M17.7507 4.12781C17.8013 4.20664 17.8982 4.23618 17.9745 4.18181C18.085 4.1031 18.1839 4.19298 18.0889 4.28988C18.0443 4.3355 17.9953 4.37762 17.9459 4.41717C17.8899 4.45866 17.8978 4.52728 17.8991 4.59039C17.8997 4.6173 17.8747 4.63545 17.8486 4.62891C17.8173 4.62107 17.7866 4.64583 17.7893 4.67796C17.8246 5.09606 17.8724 5.51177 17.894 5.93013C17.8972 5.98007 17.9005 6.03295 17.9459 6.06527C18.1599 6.24741 18.3804 6.42662 18.5361 6.6587C18.5863 6.73292 18.6942 6.72344 18.6925 6.63385C18.6912 6.56761 18.6862 6.50131 18.6788 6.43543C18.6009 5.76561 18.5296 5.09286 18.468 4.4201C18.4615 4.33785 18.4485 4.25265 18.4583 4.17039C18.46 4.1504 18.4668 4.13121 18.4773 4.11388C18.5375 4.0153 18.6765 4.0755 18.7274 4.17921C18.7847 4.30118 18.8369 4.43233 18.8372 4.56859C18.8372 4.59677 18.8108 4.61558 18.7842 4.60634C18.7527 4.59539 18.7194 4.62057 18.7237 4.65364C18.7789 5.08502 18.8331 5.51654 18.8669 5.95069C18.8831 6.25916 18.9317 6.57057 18.8636 6.8761C18.8052 7.15813 18.6593 7.44309 18.3999 7.60467C18.1826 7.73981 17.9297 7.81619 17.6767 7.86614C17.5679 7.88771 17.551 7.78704 17.6542 7.74606C17.6715 7.73917 17.6888 7.73221 17.7059 7.72512C17.8713 7.65755 18.0302 7.58411 18.1794 7.4901C18.2489 7.44617 18.32 7.40225 18.3867 7.35323C18.5106 7.26215 18.5379 7.09665 18.4652 6.96112C18.3008 6.65461 17.9486 6.82682 17.9129 7.17282C17.908 7.22097 17.9017 7.26897 17.894 7.31677C17.8812 7.41712 17.767 7.39208 17.757 7.29142C17.7505 7.22735 17.7458 7.16305 17.7383 7.09937C17.7092 6.79972 17.6832 6.49712 17.6605 6.19747C17.6605 6.13578 17.6184 6.08877 17.5697 6.05352C17.5221 6.01548 17.4752 5.97634 17.4289 5.93657C17.269 5.79931 17.0489 5.91088 17.0638 6.12109C17.0865 6.36786 17.0898 6.61464 17.1157 6.86141C17.1319 7.03474 17.1352 7.21688 17.0671 7.3814C16.999 7.5371 16.8465 7.6693 16.6649 7.68106C16.5677 7.68987 16.4704 7.68106 16.3763 7.66637C16.2758 7.65168 16.198 7.57823 16.1526 7.49597C16.1391 7.4715 16.1271 7.44632 16.1161 7.42074C16.0569 7.28326 15.8951 7.17267 15.7894 7.27858C15.6597 7.39609 15.6207 7.57529 15.5591 7.72806C15.5235 7.81913 15.4813 7.91902 15.3873 7.96896C15.29 8.02184 15.17 8.00127 15.0759 7.95133C14.9333 7.87789 14.8457 7.73687 14.8035 7.59292C14.7614 7.48129 14.8198 7.35202 14.7484 7.24626C14.6965 7.14931 14.7257 7.03474 14.7517 6.93486C14.7831 6.83253 14.8347 6.73882 14.8991 6.65318C14.9766 6.55019 14.9747 6.40067 14.8753 6.31856C14.7334 6.20128 14.5224 6.3069 14.5289 6.49089C14.5382 6.7551 14.5384 7.01888 14.502 7.28152C14.5016 7.28429 14.5013 7.28706 14.5009 7.28982C14.4865 7.39897 14.3647 7.37365 14.356 7.26389C14.3106 6.79972 14.2717 6.33555 14.2393 5.87137C14.236 5.81849 14.2263 5.75974 14.1809 5.72448C13.9928 5.55409 13.8112 5.37195 13.6426 5.18099C13.5453 5.06348 13.4448 4.94303 13.3929 4.80202C13.3525 4.67997 13.4888 4.62377 13.6037 4.68157C13.7107 4.74032 13.8112 4.81671 13.8988 4.90484C13.9213 4.92694 13.9373 4.95298 13.9499 4.98067C13.9636 5.01056 13.9395 5.04271 13.9067 5.04184C13.8671 5.04079 13.8447 5.08487 13.8695 5.11579C13.9058 5.16097 13.944 5.20489 13.984 5.24726C14.0638 5.33164 14.1931 5.26804 14.1856 5.15216C14.1665 4.85526 14.1372 4.55753 14.1225 4.26146C14.1225 4.20858 14.1225 4.14983 14.1614 4.10576C14.2252 4.03751 14.3402 4.08682 14.3845 4.16902C14.4328 4.25852 14.4698 4.35355 14.4955 4.45242C14.5071 4.49466 14.5087 4.53842 14.5075 4.58261C14.5067 4.60977 14.4802 4.62885 14.454 4.62146C14.4239 4.61292 14.3945 4.63683 14.3972 4.66807C14.4225 4.96599 14.4549 5.2617 14.476 5.55997C14.4767 5.56967 14.4774 5.57952 14.4783 5.58944C14.4841 5.66041 14.5173 5.72368 14.5701 5.77149C14.66 5.8438 14.75 5.91611 14.8401 5.98807C15.0868 6.18495 15.4328 6.17436 15.6791 5.97713C15.7115 5.95069 15.744 5.92719 15.7699 5.89781C15.7959 5.87137 15.7861 5.83318 15.7861 5.80087C15.7407 5.41602 15.7083 5.03117 15.6726 4.64631C15.6629 4.5053 15.6402 4.36722 15.6402 4.22915C15.637 4.14689 15.7051 4.06463 15.7926 4.06169C15.8603 4.05659 15.8859 4.15204 15.9159 4.21286C15.9568 4.29566 15.9885 4.38275 16.0099 4.47298C16.0219 4.51638 16.0215 4.56138 16.0152 4.6068C16.0117 4.63209 15.9851 4.64614 15.9616 4.63601C15.9328 4.62352 15.9016 4.64711 15.9057 4.67828C15.9341 4.89485 15.9592 5.11141 15.9823 5.32798C15.9997 5.49073 16.1779 5.56621 16.305 5.46302C16.477 5.32181 16.4883 5.07462 16.3274 4.92088C16.3014 4.89611 16.2756 4.87123 16.2499 4.84608C16.172 4.7697 16.078 4.69626 16.0456 4.58756C16.0031 4.46253 16.1562 4.37201 16.2721 4.43524C16.3312 4.46745 16.3872 4.50547 16.4412 4.54349C16.5285 4.6068 16.6521 4.54941 16.6415 4.44205C16.6361 4.38773 16.6306 4.33341 16.626 4.27909C16.626 4.22033 16.6195 4.1557 16.6617 4.1087C16.7243 4.04164 16.8399 4.08466 16.8837 4.16528C16.9302 4.25076 16.9638 4.34278 16.9892 4.43479C17.003 4.48065 17.0071 4.5265 17.0071 4.57236C17.0071 4.60178 16.9792 4.62281 16.9505 4.61656C16.9187 4.60964 16.8892 4.63599 16.8928 4.66835C16.8964 4.69997 16.9 4.73147 16.9037 4.76295C16.9138 4.84896 17.0115 4.89062 17.0795 4.83708C17.1763 4.76097 17.2713 4.68282 17.3719 4.61106C17.4238 4.56406 17.5178 4.5288 17.5178 4.44654C17.5211 4.35841 17.5016 4.26734 17.5146 4.17921C17.5216 4.12415 17.564 4.07673 17.6175 4.05674C17.6581 4.04154 17.702 4.06185 17.7285 4.09622C17.7365 4.10657 17.7438 4.11712 17.7507 4.12781ZM17.063 5.1145C17.0485 5.12556 17.0347 5.13761 17.0205 5.14911C17.019 5.15035 17.0175 5.15161 17.0159 5.15286C16.9701 5.19007 16.9839 5.2529 17.027 5.29322C17.0383 5.30376 17.0498 5.31419 17.0606 5.32494C17.1168 5.37325 17.1722 5.42233 17.2274 5.47135C17.3835 5.6098 17.6009 5.4951 17.5892 5.28675C17.5672 5.04031 17.3084 4.9231 17.1135 5.07548C17.0968 5.08857 17.0799 5.10159 17.063 5.1145ZM16.6488 4.81083C16.6171 4.81083 16.6004 4.84903 16.6218 4.8723C16.6226 4.87315 16.6233 4.874 16.6241 4.87485C16.6469 4.89967 16.6861 4.88358 16.6851 4.84988C16.6851 4.84883 16.685 4.84779 16.685 4.84674C16.6844 4.82691 16.6686 4.81083 16.6488 4.81083ZM16.1104 5.88313C16.078 5.90957 16.0391 5.93894 16.0423 5.98301C16.0391 6.20628 16.065 6.43543 16.0066 6.65283C15.9895 6.72678 15.8896 6.69532 15.8782 6.62025C15.8696 6.56302 15.8628 6.50553 15.8565 6.44795C15.8403 6.30211 15.6771 6.23698 15.5655 6.33223C15.4812 6.40422 15.4827 6.52747 15.5399 6.62252C15.5613 6.65824 15.5784 6.69641 15.5883 6.73802C15.6305 6.88785 15.5818 7.06118 15.4521 7.16107C15.3941 7.20718 15.3288 7.2392 15.2595 7.26241C15.065 7.32766 14.8927 7.52458 15.0143 7.68987C15.063 7.75156 15.1408 7.81032 15.2251 7.78681C15.3159 7.76331 15.371 7.68106 15.4035 7.60467C15.4683 7.44897 15.5397 7.2962 15.637 7.15519C15.7148 7.03768 15.8413 6.94073 15.9904 6.93779C16.0391 6.94073 16.1039 6.92604 16.1331 6.97598C16.198 7.07881 16.2207 7.20219 16.3017 7.29914C16.4379 7.46953 16.7266 7.47247 16.8887 7.33146C16.9438 7.28445 16.9438 7.20807 16.9374 7.14344C16.8967 6.82507 16.8619 6.50497 16.8281 6.18501C16.7906 5.82994 16.39 5.66103 16.1104 5.88313ZM14.9657 6.88198C14.9092 6.9517 14.9775 7.04675 15.0664 7.03475C15.154 7.02292 15.2392 6.99527 15.3159 6.95248C15.3548 6.92898 15.4002 6.89079 15.3905 6.84085C15.3739 6.67 15.1204 6.69479 15.0103 6.82645C14.995 6.84472 14.9801 6.86324 14.9657 6.88198Z" fill="white"/>
</g>
<path id="path4625" d="M8.87747 4.03214C8.91638 4.00863 8.95206 4.04976 8.978 4.0762C9.04056 4.1494 9.1073 4.22261 9.15466 4.30648C9.17237 4.33784 9.15114 4.37508 9.11551 4.38025C9.08711 4.38437 9.0663 4.40967 9.07234 4.43773C9.10462 4.58784 9.23537 4.70067 9.27634 4.85178C9.30877 4.9546 9.31201 5.06624 9.28931 5.16906C9.25689 5.31008 9.13366 5.43346 8.98124 5.45696C8.80288 5.48634 8.60182 5.44521 8.46887 5.31889C8.38819 5.2431 8.22941 5.23784 8.16489 5.32778C8.14509 5.35538 8.12329 5.38187 8.09918 5.40702C7.98698 5.53006 7.88193 5.67015 7.89312 5.83628C7.91348 6.13863 7.93201 6.44057 7.90461 6.74078C7.88483 6.911 7.74362 6.87887 7.72693 6.70832C7.72273 6.66535 7.71846 6.62228 7.71328 6.5792C7.689 6.35728 7.66923 6.13536 7.64783 5.91344C7.62977 5.72608 7.46687 5.61272 7.32738 5.48634C7.19766 5.37471 7.1555 5.20138 7.16523 5.04274C7.16674 4.98522 7.17671 4.92835 7.18988 4.87182C7.20304 4.8153 7.1496 4.7885 7.12956 4.84297C7.06146 5.0398 7.01606 5.24544 6.92202 5.43346C6.88634 5.50691 6.81824 5.5686 6.73393 5.58623C6.63016 5.60679 6.50693 5.60092 6.42586 5.52453C6.3383 5.44228 6.31884 5.31889 6.30587 5.20725C6.29938 5.09268 6.28965 4.96929 6.34478 4.86353C6.3698 4.81368 6.42025 4.86316 6.41075 4.91811C6.41034 4.92047 6.40997 4.92284 6.40964 4.92522C6.39667 5.02511 6.41613 5.12793 6.43558 5.22488C6.44856 5.28364 6.46153 5.34827 6.51017 5.3894C6.58476 5.45403 6.71123 5.44815 6.78257 5.38352C6.82149 5.34239 6.84094 5.28951 6.8604 5.23957C6.92526 5.05155 6.97714 4.85766 7.05822 4.67551C7.17018 4.43577 7.36197 4.59149 7.321 4.8529C7.31574 4.88643 7.31221 4.92028 7.31116 4.9546C7.30792 5.04861 7.31765 5.15143 7.3825 5.22488C7.45296 5.31423 7.57846 5.2089 7.56919 5.09549C7.55221 4.88775 7.53288 4.67959 7.5187 4.46987C7.51222 4.36411 7.49276 4.25541 7.51222 4.14965C7.53974 4.025 7.73236 4.09671 7.78867 4.21127C7.8425 4.32078 7.87904 4.43789 7.88689 4.55772C7.8889 4.58829 7.86052 4.61087 7.83058 4.60436C7.79826 4.59734 7.76875 4.62401 7.77224 4.6569C7.78424 4.7698 7.79631 4.88321 7.80875 4.99656C7.82757 5.16789 8.01557 5.28244 8.11215 5.13968C8.23862 4.96635 8.25808 4.74014 8.19647 4.54037C8.17052 4.45518 8.12836 4.37586 8.10891 4.28772C8.08945 4.20547 8.15107 4.12027 8.22889 4.09383C8.28651 4.07011 8.31243 4.17138 8.33129 4.23076C8.3553 4.3064 8.36825 4.38595 8.38455 4.46399C8.41374 4.60794 8.38455 4.75777 8.43968 4.89585C8.48508 5.01336 8.56615 5.12206 8.6829 5.18375C8.77694 5.23369 8.8872 5.24544 8.99421 5.22782C9.0461 5.219 9.08826 5.17787 9.10123 5.12793C9.12717 5.03392 9.0915 4.93698 9.04934 4.85178C8.95206 4.65789 8.83207 4.47281 8.78667 4.26128C8.77045 4.1849 8.79315 4.07914 8.87747 4.03214Z" fill="white"/>
<path id="path4627" d="M13.326 4.25868C13.3478 4.22328 13.3741 4.19083 13.4039 4.16146C13.4639 4.10236 13.5244 4.16173 13.4784 4.23224C13.4625 4.25523 13.4544 4.28103 13.4499 4.30758C13.4424 4.35172 13.482 4.38949 13.5264 4.38402C13.586 4.37668 13.6416 4.43817 13.6007 4.48213C13.5916 4.49183 13.5813 4.50067 13.5692 4.50839C13.5076 4.54952 13.4168 4.57596 13.3519 4.52602C13.2838 4.45845 13.2741 4.34094 13.326 4.25868Z" fill="white"/>
<g id="g4631">
<path id="path4629" d="M9.30586 4.12939C9.36264 4.04709 9.49423 4.09658 9.54171 4.18457C9.59 4.27407 9.62452 4.37065 9.64961 4.46723C9.66124 4.5094 9.66119 4.55156 9.65783 4.59373C9.65579 4.61942 9.62989 4.63602 9.60531 4.62827C9.57653 4.61919 9.54781 4.64342 9.55237 4.67325C9.57263 4.80583 9.59458 4.93787 9.61558 5.06996C9.64624 5.26272 9.84912 5.36848 10.0247 5.28315C10.0757 5.25831 10.1277 5.23467 10.1814 5.21343C10.1889 5.21025 10.1964 5.20729 10.204 5.20453C10.2685 5.18101 10.3198 5.26159 10.256 5.28688C10.0972 5.36376 9.93614 5.43227 9.77859 5.51185C9.72578 5.53852 9.69617 5.59569 9.70294 5.65445C9.70508 5.67294 9.70722 5.69145 9.70939 5.70998C9.72157 5.81422 9.84044 5.84301 9.92341 5.77873C9.98095 5.73415 10.0426 5.78369 10.0496 5.85614C10.0524 5.88444 10.0596 5.91138 10.0766 5.93491C10.0832 5.944 10.0918 5.9515 10.1014 5.9573C10.1605 5.99303 10.2309 5.98753 10.295 5.96271C10.3554 5.93933 10.3819 5.87325 10.3896 5.80892C10.394 5.77175 10.4011 5.73482 10.409 5.698C10.4219 5.63847 10.5101 5.5872 10.5284 5.64529C10.5673 5.74811 10.5576 5.86269 10.5284 5.96551C10.4992 6.08302 10.3987 6.17116 10.2885 6.22404C10.2204 6.25635 10.136 6.27398 10.0615 6.2446C9.95684 6.20511 9.81518 6.19738 9.77932 6.30328C9.76822 6.33605 9.76084 6.37006 9.75986 6.40618C9.74689 6.65883 9.64312 6.89973 9.48422 7.0995C9.20857 7.44322 8.787 7.64887 8.35894 7.76932C8.11248 7.83395 7.85629 7.8927 7.59686 7.88095C7.45742 7.87802 7.31473 7.84864 7.19475 7.77813C7.09193 7.71409 6.98422 7.67281 6.8632 7.67784C6.85697 7.6781 6.85075 7.67825 6.84452 7.67825C6.72225 7.68268 6.70911 7.56334 6.82588 7.52679C6.83352 7.5244 6.84116 7.52199 6.84879 7.51955C6.90485 7.50165 6.93788 7.44515 6.93299 7.3865C6.90803 7.08651 6.97926 6.78254 7.13962 6.52369C7.16844 6.47843 7.21186 6.50992 7.19146 6.55955C7.17978 6.58796 7.16978 6.61704 7.16232 6.64708C7.13157 6.7585 7.11537 6.87352 7.11401 6.98835C7.11127 7.21957 7.3511 7.33853 7.56444 7.24933C7.85954 7.12594 8.14815 6.99374 8.41731 6.82335C8.51784 6.75578 8.62161 6.68527 8.68971 6.58245C8.73758 6.50872 8.63628 6.43587 8.55161 6.45948C8.46741 6.48294 8.38254 6.50491 8.29408 6.50313C8.20328 6.49725 8.106 6.47962 8.04114 6.41205C7.97628 6.34449 7.97304 6.24754 7.98601 6.16234C8.00547 6.05071 8.05735 5.93907 8.1514 5.86562C8.25841 5.78043 8.41731 5.78337 8.54054 5.83625C8.59059 5.8583 8.63161 5.89058 8.66666 5.92839C8.75115 6.01953 8.8737 6.07473 8.97552 6.00347C8.99542 5.98954 9.01506 5.97521 9.03469 5.96083C9.14501 5.88007 9.24104 5.98104 9.33829 6.07715C9.40069 6.15107 9.50366 6.04189 9.49125 5.94594C9.48115 5.8679 9.4692 5.79038 9.45828 5.71286C9.39666 5.25162 9.33505 4.78745 9.28316 4.32328C9.27992 4.25571 9.27019 4.1852 9.30586 4.12939ZM8.1968 6.1359C8.18058 6.16822 8.2195 6.18878 8.24544 6.20053C8.26889 6.20832 8.29292 6.21304 8.31727 6.21547C8.41619 6.22532 8.45179 6.08354 8.35245 6.08008C8.29733 6.07715 8.2195 6.08008 8.1968 6.1359ZM8.97906 6.27634C8.93284 6.30927 8.90739 6.36215 8.90793 6.4189C8.90853 6.48174 8.90287 6.5437 8.88104 6.60301C8.82916 6.75284 8.70917 6.87329 8.58594 6.97317C8.34921 7.15826 8.07032 7.27871 7.80117 7.41384C7.71144 7.46437 7.73563 7.57661 7.83817 7.56714C7.86374 7.56478 7.88924 7.56258 7.91467 7.56073C8.16437 7.54604 8.40434 7.47848 8.63459 7.39034C8.87456 7.29633 9.10805 7.17588 9.29613 6.99961C9.40963 6.89385 9.50043 6.76165 9.53935 6.61182C9.57146 6.49062 9.45639 6.39847 9.33591 6.36373C9.31442 6.35753 9.2935 6.34938 9.27343 6.33861C9.25687 6.32974 9.24205 6.31898 9.22854 6.30686C9.15792 6.24355 9.05629 6.2213 8.97906 6.27634Z" fill="white"/>
</g>
<path id="path4633" d="M11.5429 4.19682C11.496 4.16043 11.5627 4.08795 11.6217 4.09394C11.6433 4.09613 11.6648 4.10357 11.6823 4.11456C11.7763 4.17332 11.8315 4.28201 11.825 4.38778C11.8223 4.42853 11.771 4.42222 11.7614 4.38252C11.757 4.36457 11.7512 4.34702 11.7427 4.3301C11.7414 4.32741 11.7398 4.32485 11.7379 4.32251C11.6887 4.261 11.6001 4.24871 11.5429 4.19682Z" fill="white"/>
<path id="path4635" d="M12.8727 4.15566C12.8792 4.11453 12.9213 4.07046 12.9667 4.09397C13.0711 4.14246 13.1512 4.22697 13.2088 4.32272C13.2256 4.3507 13.2032 4.38444 13.1706 4.38277C13.1401 4.3812 13.1178 4.40979 13.1263 4.4391C13.144 4.50018 13.1636 4.56001 13.1905 4.61983C13.2391 4.73147 13.3072 4.83723 13.3267 4.96062C13.3494 5.09575 13.3234 5.24852 13.2229 5.35134C13.0348 5.55111 12.6586 5.51586 12.4965 5.3014C12.4415 5.23324 12.3037 5.2341 12.256 5.30752C12.1976 5.39741 12.1207 5.47482 12.023 5.52761C11.835 5.63631 11.5853 5.62162 11.4069 5.50704C11.2966 5.43947 11.2221 5.32196 11.2221 5.19858C11.2137 5.0812 11.2417 4.96871 11.2696 4.85638C11.2845 4.79631 11.2212 4.76644 11.2026 4.82548C11.1248 5.02231 11.0923 5.23383 10.9821 5.41891C10.9302 5.50704 10.8426 5.58636 10.7324 5.59518C10.6254 5.60105 10.5086 5.56286 10.447 5.47473C10.3919 5.39247 10.3789 5.29259 10.3789 5.19564C10.3815 5.07739 10.4596 5.09681 10.4842 5.2125C10.4928 5.25302 10.5067 5.29261 10.5281 5.33078C10.5767 5.42772 10.7064 5.48354 10.807 5.43066C10.8978 5.37778 10.9399 5.2779 10.9724 5.18683C11.0405 4.99293 11.1118 4.7961 11.2123 4.61396C11.2545 4.54051 11.2999 4.46413 11.3712 4.41125C11.4285 4.3641 11.5074 4.4398 11.4898 4.51185C11.4629 4.6223 11.4072 4.72753 11.3842 4.84017C11.3518 4.97824 11.342 5.14276 11.4458 5.25733C11.5626 5.37778 11.7571 5.40716 11.9193 5.36603C12.143 5.29846 12.3052 5.084 12.3149 4.86073C12.3214 4.72853 12.3279 4.58458 12.2533 4.46707C12.2209 4.40537 12.1592 4.34074 12.1852 4.26436C12.2123 4.13659 12.3969 4.1734 12.4231 4.30135C12.4254 4.31238 12.4272 4.32355 12.4284 4.33487C12.4543 4.53757 12.4576 4.74616 12.5322 4.94005C12.5776 5.05169 12.6457 5.16626 12.7657 5.21914C12.8759 5.26908 13.0121 5.28083 13.1191 5.22795C13.1872 5.19564 13.2034 5.11632 13.1872 5.05169C13.1418 4.84017 12.9894 4.67271 12.9181 4.47C12.8792 4.36718 12.85 4.26142 12.8727 4.15566Z" fill="white"/>
<path id="path4637" d="M15.0497 4.11156C15.1178 4.08218 15.2151 4.10568 15.2475 4.17325C15.2544 4.19044 15.2512 4.2068 15.2428 4.221C15.2282 4.24558 15.1958 4.25041 15.1688 4.24096C15.1644 4.2394 15.16 4.23777 15.1557 4.23608C15.1112 4.21877 15.061 4.23415 15.0425 4.27809C15.0315 4.30443 15.0215 4.33134 15.0124 4.35861C14.9936 4.41426 14.9198 4.41686 14.8843 4.37008C14.8694 4.35089 14.8518 4.33483 14.8331 4.32006C14.7561 4.25955 14.7127 4.11557 14.8065 4.14387C14.8115 4.14533 14.8164 4.147 14.8212 4.14886C14.898 4.1787 14.9792 4.15415 15.0497 4.11156Z" fill="white"/>
<path id="path4639" d="M6.32625 4.35859C6.34769 4.31517 6.37698 4.27619 6.41164 4.24166C6.4719 4.18163 6.53084 4.24081 6.48839 4.31452C6.47189 4.33845 6.46462 4.36541 6.46104 4.39309C6.4556 4.43513 6.49269 4.47048 6.53453 4.46371C6.59281 4.45429 6.64942 4.5153 6.60929 4.55859C6.60044 4.56815 6.5905 4.57697 6.57919 4.5848C6.52082 4.62593 6.43326 4.64943 6.37165 4.6083C6.3003 4.54955 6.28733 4.44085 6.32625 4.35859Z" fill="white"/>
<g id="g4643">
<path id="path4641" d="M10.4734 4.20863C10.4928 4.11168 10.6453 4.11462 10.6939 4.18806C10.7263 4.24094 10.7425 4.29676 10.775 4.34964C10.8042 4.40252 10.8398 4.45834 10.8204 4.52003C10.7964 4.59979 10.7416 4.66563 10.7175 4.74373C10.7104 4.767 10.7334 4.78499 10.7555 4.77464C10.7796 4.76332 10.8099 4.7839 10.8065 4.8103C10.8018 4.84637 10.7919 4.88069 10.7555 4.89901C10.6842 4.93132 10.5966 4.86669 10.6031 4.79325C10.6073 4.73625 10.635 4.68471 10.6618 4.63322C10.7058 4.54857 10.6234 4.51957 10.5517 4.58254C10.5326 4.59933 10.5129 4.61544 10.4925 4.63073C10.412 4.6913 10.3849 4.63134 10.4572 4.56116C10.4607 4.55794 10.4642 4.55466 10.4676 4.55133C10.5583 4.46299 10.4522 4.33346 10.4734 4.20863ZM10.6204 4.22902C10.6055 4.21563 10.5936 4.23267 10.6086 4.24588C10.623 4.25854 10.6368 4.2446 10.6229 4.23137C10.6221 4.23058 10.6212 4.22979 10.6204 4.22902Z" fill="white"/>
</g>
<path id="path4645" d="M9.85216 4.39166C9.7967 4.33498 9.84924 4.22451 9.90374 4.28211C9.97325 4.34334 10.0209 4.42643 10.0399 4.51465C10.0529 4.57532 9.9921 4.58322 9.96211 4.52889C9.93616 4.4756 9.89361 4.43402 9.85216 4.39166Z" fill="white"/>
<path id="path4647" d="M8.71219 4.42684C8.71087 4.39217 8.75022 4.37852 8.76233 4.41103C8.76882 4.42847 8.77285 4.44667 8.77425 4.46549C8.77627 4.4925 8.75425 4.51365 8.72764 4.51868C8.6648 4.53056 8.60196 4.5467 8.53911 4.56094C8.49796 4.57241 8.45371 4.54468 8.44258 4.50509C8.44204 4.50316 8.44174 4.50118 8.44164 4.49918C8.44127 4.49241 8.44135 4.4857 8.44179 4.47904C8.44387 4.44731 8.49071 4.44426 8.50134 4.47422C8.5076 4.4919 8.52813 4.50183 8.54583 4.49566C8.54791 4.49493 8.55 4.4942 8.55207 4.49347C8.56608 4.4885 8.57479 4.475 8.57479 4.46014C8.57479 4.43598 8.57479 4.41203 8.57479 4.38887C8.57479 4.37519 8.58712 4.3641 8.6008 4.3641C8.61275 4.3641 8.62176 4.37264 8.62387 4.3844C8.62694 4.40153 8.63002 4.41907 8.63309 4.4364C8.63673 4.45691 8.6557 4.47096 8.67638 4.46846C8.67669 4.46842 8.677 4.46839 8.67732 4.46835C8.69793 4.46586 8.71298 4.44758 8.71219 4.42684Z" fill="white"/>
<path id="path4649" d="M15.2984 4.42926C15.3153 4.42442 15.3327 4.42047 15.3504 4.41728C15.4043 4.40757 15.4305 4.47115 15.3795 4.49096C15.1688 4.57116 14.9525 4.63053 14.7493 4.72789C14.7283 4.73795 14.7201 4.76354 14.731 4.78413C14.7471 4.81476 14.7208 4.85303 14.6871 4.84494C14.661 4.83866 14.6365 4.82838 14.6174 4.80824C14.5817 4.77592 14.5785 4.71423 14.6207 4.68485C14.6563 4.65841 14.6952 4.64372 14.7374 4.6261C14.9222 4.56146 15.1071 4.48802 15.2984 4.42926Z" fill="white"/>
<path id="path4651" d="M11.9085 4.60185C11.9075 4.58913 11.914 4.57651 11.9246 4.56935C11.9517 4.55095 11.9885 4.57433 11.995 4.60644C12.0051 4.6568 12.0263 4.70444 12.0504 4.75207C12.0861 4.82258 12.0569 4.92246 11.9693 4.94009C11.9556 4.9444 11.9422 4.94644 11.929 4.94664C11.8288 4.94816 11.7248 4.96603 11.6256 4.95184C11.5121 4.94597 11.4569 4.81964 11.4796 4.72563C11.4898 4.6612 11.5578 4.70014 11.5671 4.76469C11.5679 4.77028 11.569 4.77586 11.5704 4.78145C11.5893 4.84538 11.686 4.77952 11.6955 4.71356C11.6998 4.68345 11.7051 4.65313 11.7131 4.62281C11.721 4.57615 11.7972 4.62127 11.8017 4.66837C11.8043 4.69471 11.8085 4.72073 11.8169 4.7462C11.8412 4.81223 11.9353 4.75634 11.9221 4.68722C11.9166 4.65853 11.9106 4.63016 11.9085 4.60185Z" fill="white"/>
<path id="path4653" d="M8.62016 4.82263C8.56178 4.76662 8.63116 4.66622 8.6889 4.72288C8.72009 4.75198 8.74688 4.78577 8.76829 4.82254C8.8213 4.91356 8.73589 4.92426 8.65647 4.85508C8.64418 4.84465 8.63189 4.83388 8.62016 4.82263Z" fill="white"/>
<path id="path4655" d="M15.2583 5.08171C15.2568 5.06987 15.2605 5.05795 15.2691 5.04972C15.2951 5.02497 15.3396 5.04817 15.3483 5.08296C15.3589 5.12487 15.3761 5.16507 15.3958 5.20418C15.4282 5.26881 15.4282 5.37164 15.3471 5.40101C15.3356 5.40602 15.3239 5.40934 15.3123 5.41121C15.198 5.42958 15.07 5.4447 14.958 5.4157C14.8574 5.39514 14.8153 5.2835 14.8315 5.19537C14.8379 5.13207 14.9074 5.17166 14.9184 5.23432C14.9194 5.23994 14.9207 5.24556 14.9223 5.25119C14.9459 5.31524 15.0378 5.23812 15.0458 5.17034C15.0494 5.13992 15.055 5.11004 15.0662 5.08147C15.0694 5.07321 15.0745 5.06644 15.082 5.06158C15.1138 5.04077 15.1527 5.0676 15.1528 5.10561C15.1529 5.149 15.1562 5.1921 15.1785 5.23062C15.2099 5.28346 15.2824 5.21946 15.2711 5.15906C15.2662 5.13327 15.2614 5.10749 15.2583 5.08171Z" fill="white"/>
<path id="path4657" d="M18.0677 5.24375C17.9841 5.20397 17.9292 5.07532 18.0218 5.07532C18.1028 5.07532 18.1644 5.13995 18.2034 5.20164C18.2095 5.21303 18.2153 5.22463 18.2209 5.23642C18.2729 5.34759 18.2076 5.33233 18.1061 5.26334C18.0937 5.25632 18.0807 5.24998 18.0677 5.24375Z" fill="white"/>
<path id="path4659" d="M13.473 5.43367C13.5435 5.35813 13.6807 5.43965 13.6584 5.54056C13.6517 5.57053 13.6379 5.59907 13.6189 5.62169C13.5917 5.65569 13.5593 5.68453 13.5234 5.70835C13.4508 5.75642 13.4342 5.69963 13.5022 5.64519C13.5245 5.63002 13.5319 5.60712 13.5353 5.58258C13.5392 5.55526 13.5126 5.53156 13.4854 5.53599C13.4524 5.54136 13.4273 5.50652 13.4437 5.47732C13.4521 5.46222 13.4615 5.44749 13.473 5.43367Z" fill="white"/>
<path id="path4661" d="M15.6493 5.52478C15.7077 5.51302 15.7283 5.56883 15.6801 5.60396C15.6481 5.6273 15.6089 5.64361 15.5747 5.65992C15.3524 5.75784 15.1359 5.86642 14.9169 5.97296C14.8988 5.98178 14.8765 5.97433 14.8662 5.95699C14.8572 5.94182 14.8621 5.92275 14.8767 5.91291C14.9996 5.83041 15.1329 5.76683 15.2634 5.69811C15.3931 5.63642 15.5164 5.56885 15.6493 5.52478Z" fill="white"/>
<g id="g4665">
<path id="path4663" d="M11.256 5.69805C11.2659 5.63071 11.3629 5.63257 11.4074 5.68406C11.5479 5.84653 11.6651 6.02942 11.7327 6.23273C11.8105 6.46482 11.83 6.70866 11.8786 6.94662C11.9046 7.06707 11.9273 7.19339 12.0116 7.29034C12.0168 7.29678 12.0223 7.30297 12.028 7.30895C12.1105 7.39546 12.233 7.29824 12.3359 7.23746C12.386 7.2057 12.4378 7.17667 12.4909 7.14984C12.5961 7.0967 12.5673 6.92476 12.4494 6.92311C12.3414 6.92127 12.2334 6.92638 12.1261 6.92315C12.0192 6.91992 11.9212 6.81113 11.9824 6.72334C12.0602 6.59996 12.1964 6.52945 12.3262 6.46482C12.4484 6.40491 12.5719 6.34949 12.6989 6.30272C12.8039 6.26403 12.7952 6.12691 12.8223 6.01827C12.8612 5.91251 12.9585 5.80675 13.0817 5.80969C13.2179 5.80969 13.3509 5.86257 13.4676 5.9272C13.4902 5.94114 13.5144 5.95537 13.5377 5.97091C13.6349 6.03563 13.6517 6.16617 13.5811 6.25917C13.5278 6.32226 13.4445 6.33718 13.361 6.34487C13.3042 6.3501 13.2641 6.3952 13.2474 6.4497C13.2455 6.45608 13.2433 6.46233 13.2408 6.4684C13.2194 6.5204 13.1555 6.49881 13.133 6.44729C13.1149 6.40575 13.07 6.38172 13.0259 6.39218C12.9973 6.39898 12.969 6.40671 12.941 6.41532C12.7442 6.47584 12.8133 6.71433 13.0192 6.71254C13.402 6.70923 13.7844 6.70383 14.1681 6.70572C14.2323 6.71057 14.277 6.77276 14.2373 6.82344C14.1739 6.90419 14.0621 6.94953 13.9606 6.97306C13.6784 7.03181 13.3963 7.08469 13.1142 7.13757C12.9034 7.1787 12.6894 7.22571 12.498 7.31678C12.3927 7.36448 12.433 7.50544 12.5456 7.53125C12.6136 7.54683 12.6823 7.55993 12.751 7.57237C12.7996 7.58412 12.8677 7.59293 12.8807 7.64875C12.9223 7.80568 12.7453 7.89006 12.5851 7.86404C12.5711 7.86178 12.5572 7.85949 12.5434 7.85733C12.284 7.81914 12.0343 7.68988 11.8851 7.47836C11.8478 7.42809 11.8192 7.37368 11.7966 7.31681C11.7449 7.18643 11.5691 7.14217 11.4635 7.23452C11.2106 7.46073 10.9058 7.62525 10.588 7.75745C10.4777 7.80445 10.3383 7.81914 10.228 7.75451C10.1057 7.68527 9.98294 7.59562 9.85493 7.6536C9.63365 7.75385 9.40607 7.84041 9.16435 7.88377C9.07777 7.89895 8.99059 7.9125 8.90307 7.92277C8.81856 7.93269 8.79956 7.84379 8.87898 7.81327C9.23569 7.67225 9.58592 7.51361 9.92967 7.34322C10.0162 7.29499 10.0673 7.21284 10.0924 7.11705C10.1027 7.07796 10.1154 7.03931 10.1372 7.00244C10.1466 6.98309 10.1575 6.96463 10.1696 6.94701C10.214 6.88232 10.2855 6.94082 10.2599 7.01501C10.2386 7.07681 10.3039 7.12158 10.3592 7.0867C10.5164 6.98752 10.6661 6.87751 10.802 6.74978C10.8474 6.70278 10.9123 6.64402 10.8863 6.57352C10.8539 6.47363 10.7988 6.3855 10.7598 6.28855C10.7015 6.14754 10.6301 6.00065 10.6463 5.84494C10.6516 5.76369 10.7703 5.75178 10.828 5.80931C10.8977 5.87892 10.9531 5.96218 11.0034 6.04564C11.0161 6.06668 11.0038 6.09374 10.9797 6.09834C10.9579 6.10249 10.9454 6.12526 10.9542 6.14559C11.0094 6.27422 11.0865 6.3936 11.1101 6.53239C11.1295 6.6499 11.1003 6.77916 11.0128 6.8673C10.8295 7.05531 10.6104 7.20477 10.3945 7.35614C10.3343 7.39838 10.3394 7.50577 10.4129 7.50186C10.5199 7.49892 10.6236 7.46367 10.7209 7.42548C10.8084 7.38873 10.892 7.34598 10.9728 7.29896C11.424 7.03631 11.5764 6.46359 11.3241 6.00652C11.2755 5.91839 11.2398 5.80675 11.256 5.69805ZM13.0785 5.97714C12.9846 5.97714 13.0039 6.11265 13.0881 6.15436C13.0986 6.15955 13.1094 6.16415 13.1207 6.1681C13.2494 6.19402 13.252 5.99598 13.1217 5.97983C13.1075 5.97807 13.0931 5.97714 13.0785 5.97714Z" fill="white"/>
</g>
<g id="g4669">
<path id="path4667" d="M6.79569 5.69807C6.8026 5.62295 6.9125 5.61496 6.98014 5.64835C7.0366 5.67623 7.08347 5.72592 7.12646 5.76857C7.14354 5.78546 7.15914 5.80503 7.16826 5.82634C7.18836 5.87327 7.16531 5.93483 7.11654 5.94993C7.06908 5.96462 7.01388 5.96205 6.9722 5.98909C6.92032 6.02275 6.8851 6.08348 6.83136 6.11523C6.74266 6.17288 6.64136 6.22325 6.53494 6.24968C6.43734 6.27392 6.4072 6.18421 6.50383 6.15636C6.55908 6.13927 6.60985 6.11356 6.6573 6.08259C6.77957 6.00281 6.77213 5.84215 6.79569 5.69807ZM6.91525 5.71993C6.88697 5.71443 6.86082 5.73871 6.86785 5.76665C6.86897 5.77106 6.87015 5.77545 6.87143 5.77983C6.88179 5.81551 6.92611 5.81376 6.94076 5.77962C6.94146 5.77801 6.94215 5.77639 6.94283 5.77478C6.95287 5.75122 6.94039 5.72482 6.91525 5.71993ZM7.02349 5.83943C7.01395 5.8677 7.03783 5.89719 7.06746 5.89358C7.0906 5.89076 7.10759 5.86945 7.10277 5.84663C7.10121 5.83922 7.09949 5.83183 7.09758 5.82448C7.08859 5.78976 7.04777 5.7809 7.0333 5.81371C7.02963 5.82201 7.02645 5.83064 7.02349 5.83943Z" fill="white"/>
</g>
<path id="path4671" d="M12.3019 5.73856C12.3005 5.72752 12.3039 5.71661 12.3123 5.70928C12.3383 5.68655 12.3807 5.71153 12.3914 5.74438C12.414 5.81374 12.4586 5.87647 12.4658 5.95049C12.4756 6.05331 12.3361 6.10619 12.2518 6.05918C12.2081 6.02948 12.1547 6.03184 12.1107 6.06105C12.0836 6.079 12.0536 6.09029 12.0183 6.08269C11.9145 6.06506 11.8594 5.95049 11.8789 5.85648C11.8888 5.79022 11.9597 5.83093 11.9664 5.89761C11.9762 5.96881 12.087 5.91894 12.0982 5.84795C12.103 5.81775 12.1072 5.78717 12.1124 5.75659C12.1202 5.70713 12.2003 5.75426 12.2053 5.80408C12.2077 5.82795 12.2119 5.85146 12.2194 5.8741C12.2497 5.93824 12.3407 5.8974 12.3231 5.82868C12.3154 5.79864 12.3057 5.7686 12.3019 5.73856Z" fill="white"/>
<path id="path4673" d="M7.12436 6.0974C7.17949 6.0739 7.23786 6.04452 7.29948 6.03865C7.35785 6.03571 7.38704 6.12091 7.34163 6.15616C7.27353 6.2061 7.19246 6.22667 7.11463 6.25898C6.93303 6.34124 6.75143 6.42056 6.57307 6.51163C6.51756 6.54516 6.4741 6.46011 6.52445 6.41922C6.53449 6.41106 6.54527 6.40362 6.55686 6.39706C6.74495 6.28836 6.93303 6.18848 7.12436 6.0974Z" fill="white"/>
<path id="path4675" d="M13.9459 6.18847C13.9512 6.16459 13.9661 6.14896 13.9854 6.13763C14.0317 6.11053 14.0878 6.15227 14.099 6.2047C14.1052 6.23367 14.1133 6.26203 14.1253 6.28894C14.1373 6.31586 14.1208 6.35099 14.0915 6.35416C14.0808 6.35532 14.0721 6.36098 14.0659 6.36979C14.0296 6.42167 13.9892 6.47585 13.9297 6.50281C13.8736 6.52898 13.8665 6.47335 13.9127 6.43217C13.9235 6.42256 13.9335 6.41189 13.9427 6.39999C13.9978 6.3383 13.9394 6.25897 13.9459 6.18847Z" fill="white"/>
<g id="g4679">
<path id="path4677" d="M16.3953 6.27378C16.4115 6.22677 16.4698 6.22677 16.512 6.23265C16.6028 6.24734 16.6677 6.32078 16.726 6.38248C16.8095 6.45807 16.6852 6.54011 16.5808 6.58218C16.5648 6.5886 16.5502 6.59773 16.5379 6.61162C16.4317 6.72794 16.2861 6.81551 16.1281 6.8519C16.0304 6.87439 16.0003 6.78516 16.0969 6.75851C16.1427 6.74436 16.185 6.72394 16.2247 6.69953C16.3633 6.61452 16.3442 6.42807 16.3953 6.27378ZM16.5163 6.32612C16.4879 6.31768 16.4611 6.34214 16.4675 6.37112C16.4678 6.3725 16.4681 6.37388 16.4684 6.37526C16.4767 6.41151 16.5236 6.41551 16.5384 6.38139C16.5394 6.37919 16.5403 6.37699 16.5412 6.37478C16.5495 6.35472 16.5371 6.3323 16.5163 6.32612ZM16.6582 6.37216C16.6502 6.37337 16.6427 6.37832 16.6395 6.38575C16.6309 6.40523 16.6237 6.42529 16.617 6.44563C16.6081 6.47306 16.6305 6.49983 16.6591 6.49631C16.684 6.49324 16.7018 6.46906 16.696 6.44459C16.691 6.4234 16.6853 6.40251 16.6764 6.38234C16.6732 6.37512 16.666 6.37098 16.6582 6.37216Z" fill="white"/>
</g>
<path id="path4681" d="M10.2584 6.36481C10.32 6.30899 10.4303 6.33837 10.4692 6.40593C10.4971 6.46058 10.3908 6.46888 10.3315 6.45338C10.3309 6.45323 10.3303 6.45308 10.3298 6.45294C10.2973 6.44413 10.2876 6.47938 10.2779 6.49994C10.2632 6.53325 10.2513 6.56739 10.2405 6.60189C10.2226 6.65971 10.1509 6.66084 10.1157 6.61158C10.0768 6.5587 10.012 6.52932 9.96332 6.48525C9.91792 6.45 9.96657 6.37362 10.0185 6.38243C10.039 6.38486 10.0574 6.39153 10.0742 6.40091C10.1402 6.43759 10.2069 6.41999 10.2584 6.36481Z" fill="white"/>
<path id="path4683" d="M6.35953 6.87611C6.38093 6.84142 6.40663 6.80956 6.43568 6.78066C6.49602 6.72065 6.55843 6.78133 6.51194 6.85261C6.49719 6.87399 6.48915 6.8972 6.48446 6.92112C6.47544 6.96716 6.5165 7.00681 6.56309 7.00126C6.62388 6.99401 6.67889 7.0561 6.6372 7.10094C6.62731 7.11158 6.61596 7.12102 6.60274 7.12876C6.59918 7.13097 6.59553 7.13315 6.59181 7.13528C6.46707 7.20677 6.30439 7.08739 6.33275 6.94644C6.33774 6.92165 6.34672 6.89776 6.35953 6.87611Z" fill="white"/>
<path id="path4685" d="M11.5384 7.3662C11.5359 7.34565 11.551 7.32562 11.5713 7.32155C11.6173 7.31234 11.666 7.30384 11.7046 7.33412C11.7409 7.35607 11.7592 7.40424 11.7472 7.44435C11.7388 7.47225 11.7108 7.48912 11.6826 7.49615C11.5722 7.52358 11.5373 7.60751 11.5808 7.71259C11.5868 7.7271 11.5916 7.74187 11.5943 7.75716C11.5978 7.80694 11.5186 7.79283 11.5029 7.74545C11.4934 7.71657 11.4813 7.68871 11.4646 7.66315C11.4387 7.61615 11.3998 7.56914 11.4127 7.51333C11.4236 7.46175 11.4729 7.43276 11.5173 7.40748C11.5325 7.3988 11.5405 7.3836 11.5384 7.3662Z" fill="white"/>
<path id="path4687" d="M14.0208 7.41977C14.0259 7.40773 14.0323 7.39691 14.0398 7.38707C14.0687 7.34899 14.1086 7.3895 14.0981 7.43614C14.0958 7.44655 14.0982 7.45715 14.1043 7.46592C14.1199 7.48848 14.1392 7.50846 14.1564 7.52998C14.1789 7.55809 14.1944 7.60064 14.1672 7.62435C14.1335 7.65385 14.0642 7.65053 14.0338 7.61661C13.9851 7.56373 13.9916 7.48147 14.0208 7.41977Z" fill="white"/>
<path id="path4689" d="M13.4246 7.33458C13.4457 7.32773 13.4673 7.32407 13.4889 7.32305C13.6083 7.31742 13.6403 7.4617 13.5344 7.51737C13.4945 7.53839 13.453 7.55792 13.4154 7.58192C13.4052 7.58842 13.4007 7.60064 13.4025 7.61258C13.4048 7.62772 13.4172 7.64064 13.4325 7.64141C13.4952 7.64458 13.5589 7.64737 13.6126 7.61661C13.6767 7.5841 13.7146 7.64871 13.658 7.69299C13.5737 7.75762 13.457 7.75762 13.3565 7.73118C13.3078 7.71649 13.2462 7.67536 13.2624 7.61661C13.2795 7.56833 13.3189 7.53529 13.3615 7.50579C13.3836 7.49049 13.3748 7.4574 13.3481 7.45561C13.3253 7.45409 13.3126 7.4274 13.3262 7.40917C13.3521 7.37466 13.381 7.34288 13.4246 7.33458Z" fill="white"/>
<path id="path4691" d="M15.7755 7.54283C15.7431 7.50758 15.7723 7.44882 15.8177 7.44295C15.9052 7.42826 15.9798 7.49583 16.0187 7.5634C16.0404 7.59832 16.0536 7.63648 16.0591 7.67563C16.0687 7.74383 16.009 7.73731 15.976 7.67685C15.9743 7.67374 15.9722 7.67068 15.9699 7.66798C15.9206 7.60985 15.8325 7.59739 15.7755 7.54283Z" fill="white"/>
<path id="path4693" d="M17.2426 7.58734C17.3119 7.56359 17.3812 7.53592 17.4523 7.51904C17.5232 7.50223 17.5617 7.58571 17.4923 7.60791C17.2913 7.67841 17.087 7.74304 16.8891 7.82236C16.8361 7.84513 16.7806 7.86354 16.7228 7.87759C16.7067 7.88151 16.6901 7.87256 16.6832 7.85748C16.6763 7.84252 16.6825 7.82529 16.6971 7.81755C16.8714 7.72479 17.057 7.6574 17.2426 7.58734Z" fill="white"/>
</g>
<path id="path4697" d="M16.8514 11.3607H15.9138C15.88 11.3607 15.8526 11.3333 15.8526 11.2995C15.8526 11.2812 15.8608 11.2639 15.8748 11.2521C15.9155 11.218 15.9589 11.1784 15.9589 11.1538C15.9589 11.1034 15.8332 11 15.8042 11C15.772 11 15.6496 11.1061 15.6496 11.1538C15.6496 11.1857 15.7044 11.2308 15.7495 11.2679C15.7515 11.2696 15.7527 11.2721 15.7527 11.2747V11.3003C15.7527 11.3352 15.7244 11.3634 15.6896 11.3634H9.46355C8.89163 11.3634 8.83353 11.6285 9.40543 11.634C10.1467 11.6445 10.1465 11.6446 15.6827 11.6341C15.7186 11.634 15.7495 11.663 15.7495 11.6989C15.7495 11.7182 15.7407 11.7365 15.7261 11.7492C15.6874 11.783 15.6496 11.8219 15.6496 11.8462C15.6496 11.8966 15.7688 12 15.8042 12C15.8078 12 15.8127 11.9985 15.8185 11.9959C15.9108 11.9535 15.9991 11.8912 16.1006 11.8912H16.1306C16.2261 11.8912 16.3242 11.9496 16.4196 11.9496C16.5152 11.9496 16.6125 11.8912 16.708 11.8912H16.7874C16.9022 11.8912 17.017 11.9496 17.1317 11.9496C17.2896 11.9443 17.325 11.8674 17.325 11.6021C17.3218 11.3793 17.1639 11.3554 16.8514 11.3607ZM16.91 11.7149C16.9067 11.7605 16.8723 11.809 16.8265 11.809H16.6559C16.5932 11.809 16.5336 11.7701 16.4729 11.7545C16.4564 11.7503 16.4385 11.748 16.4196 11.748C16.3235 11.748 16.2256 11.809 16.1295 11.809H16.0055C15.9681 11.809 15.9332 11.7907 15.9054 11.7656C15.8981 11.759 15.8905 11.7526 15.8828 11.7465C15.8664 11.7335 15.8558 11.7142 15.8558 11.6934C15.8558 11.6591 15.8836 11.6313 15.9178 11.6313H16.9094C16.9175 11.6313 16.9233 11.639 16.9214 11.6469C16.9154 11.6707 16.9116 11.6934 16.91 11.7149Z" fill="white"/>
</g>
</g>
</svg>
